
          <svg
            width="900"
            height="81"
            viewBox="0 0 900 81"
            fill="none"
            xmlns="http://www.w3.org/2000/svg"
          >
            <path
              d="M0 71L30 73.2C60 75.3 120 79.7 180 77C240 74.3 300 64.7 360 58.2C420 51.7 480 48.3 540 53.3C600 58.3 660 71.7 720 77.2C780 82.7 840 80.3 870 79.2L900 78V0H870C840 0 780 0 720 0C660 0 600 0 540 0C480 0 420 0 360 0C300 0 240 0 180 0C120 0 60 0 30 0H0V71Z"
              fill="#1F1F1F"
            />
          </svg>